<?xml version="1.0" encoding="UTF-8" standalone="no"?>
<svg
   xmlns:svg="http://www.w3.org/2000/svg"
   xmlns="http://www.w3.org/2000/svg"
   version="1.1"
   id="svg2"
   xml:space="preserve"
   width="75"
   height="32"
   viewBox="0 0 3760 1066.6667"><defs
     id="defs6"><clipPath
       clipPathUnits="userSpaceOnUse"
       id="clipPath20"><path
         d="M 2892.18,8000 4503.63,375.629 h 374.52 L 6489.36,8000 H 9381.54 V 2.83203 H 7919.26 V 6673.85 l 272.25,953.35 H 7719.63 L 6040.37,2.83203 H 3352.62 L 1661.79,7627.2 H 1201.6 l 260.68,-953.35 V 2.83203 L 0,2.83203 V 8000 Z M 28190.7,7960.31 V 6281.54 L 24969.3,4001.29 28190.7,1721.41 V 42.3984 L 24390.6,2776.8 h -408.4 L 20193.4,42.3984 V 1721.54 l 3210.3,2279.75 -3210.3,2280 v 1679.02 l 3788.8,-2745.6 h 408.4 z M 18947.5,4729.28 V 3273.4 h -8018.4 v 1455.88 z"
         clip-rule="evenodd"
         id="path18" /></clipPath><clipPath
       clipPathUnits="userSpaceOnUse"
       id="clipPath26"><path
         d="M 0,0 H 28200 V 8000 H 0 Z"
         id="path24" /></clipPath></defs><g
     id="g10"
     transform="matrix(1.3333333,0,0,-1.3333333,0,1066.6667)"><g
       id="g12"
       transform="scale(0.1)"><g
         id="g14"><g
           id="g16"
           clip-path="url(#clipPath20)"><g
             id="g22"
             clip-path="url(#clipPath26)"><path
               d="m -100,-97.168 h 28390.7 v 8197.17 H -100 Z"
               style="fill:#ffffff;fill-opacity:1;fill-rule:nonzero;stroke:none"
               id="path28" /></g></g></g></g></g></svg>
